HIERARCHY
ROOT Hips
{
	OFFSET 0.000000 89.005402 0.000000
	CHANNELS 6 Xposition Yposition Zposition Xrotation Yrotation Zrotation
	JOINT Spine
	{
		OFFSET 0.116900 10.681000 0.373400
		CHANNELS 3 Xrotation Yrotation Zrotation
		JOINT Spine1
		{
			OFFSET 0.000000 13.840401 0.053500
			CHANNELS 3 Xrotation Yrotation Zrotation
			JOINT Spine2
			{
				OFFSET 0.000000 14.712700 -0.366200
				CHANNELS 3 Xrotation Yrotation Zrotation
				JOINT Neck
				{
					OFFSET 0.000000 35.415497 -3.314200
					CHANNELS 3 Xrotation Yrotation Zrotation
					JOINT Head
					{
						OFFSET 0.000000 16.899200 1.218300
						CHANNELS 3 Xrotation Yrotation Zrotation
						JOINT HeadTop_End
						{
							OFFSET 0.000000 22.206207 2.192500
							CHANNELS 3 Xrotation Yrotation Zrotation
							End Site
							{
								OFFSET 0.000000 22.314178 0.000000
							}
						}
					}
				}
				JOINT LeftShoulder
				{
					OFFSET 12.896400 26.716293 -4.548400
					CHANNELS 3 Xrotation Yrotation Zrotation
					JOINT LeftArm
					{
						OFFSET 19.027000 -4.857010 -1.718400
						CHANNELS 3 Xrotation Yrotation Zrotation
						JOINT LeftForeArm
						{
							OFFSET 24.179897 0.000000 0.000000
							CHANNELS 3 Xrotation Yrotation Zrotation
							JOINT LeftHand
							{
								OFFSET 27.156403 0.000000 0.000000
								CHANNELS 3 Xrotation Yrotation Zrotation
								JOINT LeftHandIndex1
								{
									OFFSET 16.441200 0.000000 0.000000
									CHANNELS 3 Xrotation Yrotation Zrotation
									JOINT LeftHandIndex2
									{
										OFFSET 4.821899 0.000000 0.000000
										CHANNELS 3 Xrotation Yrotation Zrotation
										JOINT LeftHandIndex3
										{
											OFFSET 6.386497 0.000000 0.000000
											CHANNELS 3 Xrotation Yrotation Zrotation
											JOINT LeftHandIndex4
											{
												OFFSET 5.188988 0.000000 0.000000
												CHANNELS 3 Xrotation Yrotation Zrotation
												End Site
												{
													OFFSET -0.178703 5.185913 0.000177
												}
											}
										}
									}
								}
								JOINT LeftHandThumb1
								{
									OFFSET 6.534897 -5.032593 5.900300
									CHANNELS 3 Xrotation Yrotation Zrotation
									JOINT LeftHandThumb2
									{
										OFFSET 3.818176 -2.204422 2.204423
										CHANNELS 3 Xrotation Yrotation Zrotation
										JOINT LeftHandThumb3
										{
											OFFSET 3.252098 -1.877594 1.877601
											CHANNELS 3 Xrotation Yrotation Zrotation
											JOINT LeftHandThumb4
											{
												OFFSET 5.251778 -3.032120 3.032117
												CHANNELS 3 Xrotation Yrotation Zrotation
												End Site
												{
													OFFSET 0.000023 6.780014 0.000000
												}
											}
										}
									}
								}
							}
						}
					}
				}
				JOINT RightShoulder
				{
					OFFSET -12.896300 26.716293 -4.548400
					CHANNELS 3 Xrotation Yrotation Zrotation
					JOINT RightArm
					{
						OFFSET -19.027000 -4.857010 -1.718400
						CHANNELS 3 Xrotation Yrotation Zrotation
						JOINT RightForeArm
						{
							OFFSET -24.179897 0.000000 0.000000
							CHANNELS 3 Xrotation Yrotation Zrotation
							JOINT RightHand
							{
								OFFSET -27.156403 0.000000 0.000000
								CHANNELS 3 Xrotation Yrotation Zrotation
								JOINT RightHandThumb1
								{
									OFFSET -6.591202 -4.852203 5.988100
									CHANNELS 3 Xrotation Yrotation Zrotation
									JOINT RightHandThumb2
									{
										OFFSET -3.818176 -2.204422 2.204423
										CHANNELS 3 Xrotation Yrotation Zrotation
										JOINT RightHandThumb3
										{
											OFFSET -3.252098 -1.877594 1.877601
											CHANNELS 3 Xrotation Yrotation Zrotation
											JOINT RightHandThumb4
											{
												OFFSET -5.251778 -3.032120 3.032117
												CHANNELS 3 Xrotation Yrotation Zrotation
												End Site
												{
													OFFSET -0.000023 6.780014 0.000000
												}
											}
										}
									}
								}
								JOINT RightHandIndex1
								{
									OFFSET -16.029404 0.000000 0.000000
									CHANNELS 3 Xrotation Yrotation Zrotation
									JOINT RightHandIndex2
									{
										OFFSET -5.213303 0.000000 0.000000
										CHANNELS 3 Xrotation Yrotation Zrotation
										JOINT RightHandIndex3
										{
											OFFSET -6.386528 0.000000 0.000000
											CHANNELS 3 Xrotation Yrotation Zrotation
											JOINT RightHandIndex4
											{
												OFFSET -5.189026 0.000000 0.000000
												CHANNELS 3 Xrotation Yrotation Zrotation
												End Site
												{
													OFFSET 0.236702 5.183624 0.001972
												}
											}
										}
									}
								}
							}
						}
					}
				}
			}
		}
	}
	JOINT LeftUpLeg
	{
		OFFSET 14.073000 -7.904099 -1.463000
		CHANNELS 3 Xrotation Yrotation Zrotation
		JOINT LeftLeg
		{
			OFFSET -0.109806 -34.073280 4.093200
			CHANNELS 3 Xrotation Yrotation Zrotation
			JOINT LeftFoot
			{
				OFFSET 0.109806 -29.899420 -6.319000
				CHANNELS 3 Xrotation Yrotation Zrotation
				JOINT LeftToeBase
				{
					OFFSET 1.551100 -14.988700 20.535801
					CHANNELS 3 Xrotation Yrotation Zrotation
					JOINT LeftToe_End
					{
						OFFSET 0.221200 0.570800 13.248301
						CHANNELS 3 Xrotation Yrotation Zrotation
						End Site
						{
							OFFSET 0.000000 13.262435 0.000000
						}
					}
				}
			}
		}
	}
	JOINT RightUpLeg
	{
		OFFSET -13.839300 -7.904099 -1.463000
		CHANNELS 3 Xrotation Yrotation Zrotation
		JOINT RightLeg
		{
			OFFSET 0.109694 -34.073219 4.093300
			CHANNELS 3 Xrotation Yrotation Zrotation
			JOINT RightFoot
			{
				OFFSET -0.109694 -29.899384 -6.319200
				CHANNELS 3 Xrotation Yrotation Zrotation
				JOINT RightToeBase
				{
					OFFSET -1.551100 -14.988700 20.535801
					CHANNELS 3 Xrotation Yrotation Zrotation
					JOINT RightToe_End
					{
						OFFSET -0.221200 0.570900 13.248299
						CHANNELS 3 Xrotation Yrotation Zrotation
						End Site
						{
							OFFSET 0.000000 13.262440 0.000000
						}
					}
				}
			}
		}
	}
}
MOTION
Frames: 9
Frame Time: 0.033333
0.127111 83.378525 10.120667 -3.656455 0.152943 11.144617 0.479097 2.219880 -1.886065 1.395040 5.196612 -8.447362 1.314428 5.189463 -8.462067 -2.046998 -0.249858 2.584276 4.353931 0.684893 13.165077 -0.000000 -0.000001 0.000000 0.248793 6.332125 -7.671447 -1.528832 -38.692974 19.008941 -0.000003 -5.704015 0.000002 -3.988281 -24.704927 6.383608 0.000003 0.000003 0.000001 0.000002 -0.000007 0.000001 0.000037 -0.022836 0.189123 -0.000000 0.000003 0.000002 -1.540039 3.690177 6.142352 3.939050 7.948695 0.746818 -0.579461 1.575015 2.538719 0.000001 0.000001 0.000003 0.128567 -7.496817 5.597015 8.777791 15.642233 66.885351 0.004814 88.430172 -0.004789 0.019109 -0.515803 15.726606 -1.849245 -3.581790 -6.586140 4.637194 -8.634133 -0.225403 -1.273750 0.137302 -2.094870 0.000000 -0.000001 -0.000002 0.000002 0.000001 0.000000 0.000006 0.000003 -0.000005 0.000041 0.023043 -0.189080 0.000002 -0.000002 -0.000002 -19.444697 7.099927 -15.984458 51.291784 6.478881 0.919415 2.178511 -0.612581 6.176406 -35.330386 0.000001 -0.000003 -0.000000 -0.000000 -0.000000 -47.083622 6.500705 -0.817525 72.914011 -10.812525 -0.757484 40.766295 -9.003671 -21.134350 -36.995194 -18.826957 24.674087 0.000001 -0.000001 -0.000000 
-0.074825 83.794426 10.592297 -5.112089 8.984675 11.359329 0.833925 0.906825 -2.200565 1.644326 1.790903 -8.266979 1.620960 1.821763 -8.265306 -1.827992 -0.399912 2.628678 4.153987 -0.125643 13.402056 0.000000 0.000001 -0.000000 0.290567 6.783469 -8.860943 -10.135731 -47.463067 7.790813 0.000000 -9.581438 0.000000 -3.876476 -27.710870 10.533550 -0.000001 0.000006 -0.000001 0.000002 -0.000006 -0.000002 0.000034 -0.022836 0.189121 0.000000 0.000001 -0.000001 -1.540042 3.690177 6.142351 3.939052 7.948698 0.746822 -0.579462 1.575012 2.538721 0.000003 0.000002 -0.000000 0.123401 -6.947392 5.108549 18.821317 15.162451 61.472235 -0.000010 78.841297 0.000033 7.232384 -3.673139 16.987794 -1.849250 -3.581787 -6.586143 4.637186 -8.634133 -0.225403 -1.273748 0.137305 -2.094873 -0.000001 -0.000001 0.000001 0.000000 -0.000000 -0.000001 0.000006 0.000001 -0.000009 0.000036 0.023041 -0.189083 0.000001 -0.000002 -0.000001 -18.152896 7.712554 -15.606542 51.699785 7.591711 1.157517 1.316246 -0.831940 9.852503 -37.366517 -0.000006 -0.000001 0.000000 -0.000001 0.000000 -47.037467 6.556850 -3.517684 66.868378 -12.623412 -1.247131 30.544685 -6.747966 -22.246343 -25.365980 -13.834107 27.051601 0.000001 0.000001 -0.000000 
-0.214491 83.853897 11.213783 -6.406731 18.625089 11.311104 0.808573 -0.569083 -2.532575 1.382592 -1.660589 -7.779398 1.396314 -1.629619 -7.783414 -1.547940 -0.648947 2.882454 4.333749 -1.010505 13.225195 0.000000 -0.000000 -0.000001 0.316028 6.844469 -9.330563 -21.275235 -53.834134 -8.913662 0.000003 -16.021781 0.000005 0.056074 -26.605467 16.758542 0.000003 0.000003 0.000003 0.000006 -0.000003 0.000001 0.000036 -0.022834 0.189125 -0.000000 -0.000003 0.000002 -1.540038 3.690177 6.142354 3.939052 7.948695 0.746819 -0.579461 1.575016 2.538717 0.000001 -0.000001 0.000002 0.104845 -6.808685 4.736105 29.950748 16.272524 54.772486 0.000041 67.712221 -0.000072 10.701700 -1.170586 16.941419 -1.849247 -3.581789 -6.586139 4.637195 -8.634133 -0.225404 -1.273751 0.137302 -2.094864 -0.000001 0.000000 -0.000002 0.000000 0.000002 0.000001 0.000006 0.000005 -0.000008 0.000037 0.023042 -0.189076 0.000003 -0.000000 0.000002 -18.125292 8.213545 -14.717033 53.594018 9.269835 1.474848 -0.370755 -1.071916 13.934739 -39.719070 -0.000004 -0.000004 0.000000 0.000002 0.000001 -45.084002 6.588531 -6.132722 61.343643 -13.444029 -1.575000 19.646325 -4.530463 -22.015435 -16.523647 -4.437698 17.752220 -0.000001 -0.000000 0.000000 
-0.284477 83.545502 12.026680 -7.451043 28.420446 10.843922 0.552237 -2.027258 -2.602495 0.835232 -4.834890 -7.177421 0.855661 -4.821242 -7.182890 -1.377869 -1.050589 3.332559 4.451629 -2.269866 12.666663 -0.000000 0.000001 -0.000001 0.334648 6.574633 -9.307725 -37.160689 -56.429018 -31.504029 0.000000 -25.842203 0.000010 5.400911 -22.948392 23.023437 0.000000 0.000005 -0.000004 -0.000003 -0.000002 -0.000002 0.000032 -0.022835 0.189119 -0.000002 -0.000002 -0.000000 -1.540043 3.690180 6.142350 3.939050 7.948696 0.746816 -0.579462 1.575014 2.538716 0.000001 0.000001 -0.000000 0.073704 -6.957701 4.412480 40.031343 15.690797 48.644884 -0.000006 55.614354 -0.000001 11.937045 4.724435 14.534868 -1.849250 -3.581788 -6.586144 4.637196 -8.634131 -0.225401 -1.273754 0.137302 -2.094866 0.000001 -0.000000 -0.000001 -0.000000 0.000001 -0.000002 0.000005 0.000004 -0.000009 0.000038 0.023042 -0.189078 -0.000001 -0.000001 0.000001 -19.320005 8.597256 -13.164665 56.744037 12.007133 1.871852 -2.807024 -1.442613 17.802719 -42.156583 -0.000006 0.000000 0.000000 0.000000 -0.000000 -41.496162 8.441230 -7.261922 56.653093 -14.004738 -1.679512 13.907180 -4.144027 -18.960113 -17.185649 -0.642826 6.659264 0.000000 -0.000001 0.000000 
-0.304626 83.172195 12.929031 -8.441649 37.823843 10.359468 0.324040 -3.376300 -2.579616 0.385912 -7.637903 -6.684176 0.395967 -7.639491 -6.680710 -1.480421 -1.566832 3.880447 4.090634 -3.935402 12.107030 -0.000000 0.000001 0.000000 0.351164 6.240920 -9.174928 -54.018453 -53.410945 -55.007963 0.000033 -37.825516 0.000024 10.177669 -20.568742 24.916868 -0.000003 0.000003 0.000003 -0.000000 -0.000004 0.000001 0.000035 -0.022836 0.189122 -0.000001 0.000003 -0.000002 -1.540040 3.690177 6.142355 3.939051 7.948698 0.746820 -0.579461 1.575015 2.538719 0.000002 -0.000001 0.000002 0.037191 -7.409586 4.260585 47.081293 13.214236 45.122528 -0.000014 44.235362 0.000006 14.270701 8.090975 12.409370 -1.849252 -3.581790 -6.586144 4.637193 -8.634133 -0.225407 -1.273749 0.137300 -2.094864 -0.000001 0.000001 0.000002 -0.000000 0.000000 -0.000000 0.000005 0.000002 -0.000008 0.000037 0.023042 -0.189082 0.000002 0.000001 0.000000 -20.988598 8.632833 -11.262658 59.730250 15.117623 2.276974 -4.942385 -1.748082 20.648758 -44.141569 -0.000015 -0.000010 -0.000001 -0.000000 -0.000001 -37.777411 9.647494 -7.555490 55.641159 -14.459499 -1.837152 9.406557 -6.274012 -13.628524 -18.709905 0.000004 0.000003 -0.000000 0.000003 -0.000001 
-0.322889 82.867409 13.845829 -9.567428 46.279419 10.278689 0.223320 -4.613594 -2.656653 0.177383 -10.086735 -6.472954 0.170059 -10.098825 -6.454676 -1.810415 -2.079824 4.450658 3.323074 -5.601097 11.906904 0.000000 -0.000002 -0.000000 0.361209 6.211923 -9.300639 -64.665813 -46.181563 -71.865399 0.000006 -49.893985 0.000021 11.730263 -18.633734 20.549126 -0.000002 0.000003 0.000003 0.000003 -0.000003 -0.000000 0.000033 -0.022835 0.189126 -0.000004 0.000001 -0.000000 -1.540041 3.690178 6.142351 3.939055 7.948698 0.746817 -0.579461 1.575017 2.538722 0.000001 0.000001 -0.000001 0.002506 -8.149955 4.362905 50.504218 9.658468 44.202525 -0.000003 34.230565 0.000014 17.237656 7.215756 11.729632 -1.849247 -3.581790 -6.586140 4.637193 -8.634129 -0.225403 -1.273751 0.137300 -2.094869 0.000002 -0.000003 0.000002 0.000000 0.000001 0.000001 0.000003 0.000004 -0.000006 0.000036 0.023043 -0.189081 -0.000001 -0.000002 -0.000000 -22.691574 8.148347 -9.347001 62.075293 16.734858 2.573424 -6.245490 -1.800760 22.300327 -45.346101 0.000013 -0.000005 0.000001 0.000002 0.000001 -34.083839 6.870045 -8.041753 56.449345 -15.069081 -2.058315 3.865120 -9.222267 -10.198464 -23.948510 -0.000003 -0.000009 -0.000000 0.000001 -0.000001 
-0.326225 82.775063 14.730273 -10.487336 52.845600 10.157455 0.208665 -5.622576 -2.719661 0.111126 -12.054638 -6.403333 0.081150 -12.074441 -6.369361 -2.241158 -2.480435 5.021649 2.518044 -6.691511 11.793385 -0.000000 -0.000000 -0.000001 0.362664 6.651366 -9.843161 -68.396428 -38.309971 -81.733991 0.000012 -60.047376 0.000020 9.777426 -16.825713 13.749570 -0.000004 0.000004 0.000001 -0.000001 -0.000002 -0.000004 0.000034 -0.022837 0.189120 -0.000000 0.000001 -0.000001 -1.540044 3.690175 6.142354 3.939050 7.948695 0.746816 -0.579463 1.575013 2.538719 -0.000000 -0.000002 0.000000 -0.026474 -8.924018 4.558391 50.214492 5.019381 44.162384 -0.000007 25.635635 -0.000003 19.868260 4.499183 11.446449 -1.849249 -3.581790 -6.586141 4.637191 -8.634132 -0.225404 -1.273747 0.137303 -2.094866 0.000001 -0.000001 0.000001 -0.000002 0.000001 -0.000000 0.000004 0.000002 -0.000008 0.000038 0.023044 -0.189079 0.000000 0.000001 0.000000 -24.619429 7.156652 -7.352036 63.908386 16.050950 2.723867 -6.159571 -1.447196 22.896461 -46.440300 0.000027 0.000001 0.000001 0.000000 -0.000003 -30.556685 1.522671 -8.271419 56.108915 -15.623873 -2.181746 -1.921475 -11.470900 -10.222921 -25.307140 -0.000004 0.000004 0.000001 0.000002 -0.000001 
-0.204880 82.816986 15.564003 -10.470609 56.699692 8.969628 0.199929 -6.266266 -2.679465 0.087604 -13.330934 -6.034731 0.032030 -13.355017 -5.988130 -2.692422 -2.714728 5.533885 1.972450 -6.903783 11.249645 -0.000001 0.000001 -0.000000 0.361417 7.373094 -10.658139 -67.441151 -30.598916 -87.523062 0.000044 -67.647860 0.000032 6.435627 -17.627333 7.560766 -0.000001 0.000003 0.000003 -0.000001 -0.000004 -0.000002 0.000030 -0.022836 0.189121 -0.000003 -0.000000 -0.000000 -1.540037 3.690177 6.142353 3.939052 7.948694 0.746818 -0.579463 1.575017 2.538720 -0.000001 -0.000000 -0.000001 -0.048476 -9.309789 4.554155 47.464330 -0.108455 43.178100 0.000010 18.604358 0.000003 21.500136 2.332743 10.560979 -1.849253 -3.581789 -6.586145 4.637190 -8.634139 -0.225406 -1.273747 0.137302 -2.094869 0.000003 0.000001 0.000000 -0.000002 -0.000003 -0.000002 0.000004 -0.000002 -0.000008 0.000036 0.023044 -0.189084 0.000003 -0.000001 -0.000002 -27.166374 5.766157 -4.969098 65.861069 14.265923 2.757942 -4.446739 -0.502251 21.804085 -47.687001 0.000013 0.000010 0.000001 0.000003 -0.000001 -28.103727 -2.647993 -7.327742 54.588634 -16.037825 -2.167292 -5.760346 -12.180246 -11.890690 -23.343297 0.000011 0.000008 -0.000000 0.000000 0.000002 
0.094408 82.961075 16.203686 -9.333207 57.842120 6.289896 0.131159 -6.500325 -2.635170 0.070057 -13.854500 -5.109061 -0.013668 -13.879368 -5.051398 -3.069178 -2.803570 5.940094 1.791236 -6.434637 10.280280 -0.000000 0.000000 -0.000000 0.361504 8.027014 -11.397691 -63.023426 -22.302026 -91.216808 0.000104 -73.493382 0.000092 2.317376 -20.299076 1.805311 -0.000001 0.000003 0.000003 -0.000001 -0.000003 -0.000001 0.000032 -0.022837 0.189122 -0.000002 0.000000 0.000000 -1.540041 3.690175 6.142352 3.939052 7.948699 0.746819 -0.579463 1.575012 2.538723 -0.000004 -0.000001 0.000000 -0.063919 -9.221847 4.290657 43.361323 -5.195284 40.527026 0.000010 13.442938 0.000008 22.377723 0.935189 9.414999 -1.849248 -3.581791 -6.586142 4.637193 -8.634130 -0.225404 -1.273748 0.137300 -2.094869 -0.000001 0.000001 -0.000001 0.000000 -0.000003 -0.000001 0.000005 -0.000002 -0.000007 0.000038 0.023045 -0.189081 -0.000000 -0.000004 -0.000001 -29.864234 3.753915 -2.054965 67.877013 12.241065 2.582158 -1.308053 1.022694 17.919946 -47.525771 -0.000012 -0.000002 0.000001 -0.000001 -0.000002 -27.031621 -4.359480 -5.294315 52.820674 -16.313965 -2.138743 -6.636623 -11.782209 -13.080394 -22.734210 0.000011 -0.000011 -0.000001 0.000000 0.000000 
